<?xml version="1.0" encoding="UTF-8" standalone="no" ?>
<!DOCTYPE svg PUBLIC "-//W3C//DTD SVG 1.1//EN" "http://www.w3.org/Graphics/SVG/1.1/DTD/svg11.dtd">
<svg xmlns="http://www.w3.org/2000/svg" xmlns:xlink="http://www.w3.org/1999/xlink" version="1.1" width="48" height="48" viewBox="0 0 48 48" xml:space="preserve">
<desc>Created with Fabric.js 4.6.0</desc>
<defs>
</defs>
<g transform="matrix(1 0 0 1 24 24)" id="ZayajQRhI2KQ2ZepC-mHM"  >
<path style="stroke: rgb(161,101,93); stroke-width: 0; stroke-dasharray: none; stroke-linecap: butt; stroke-dashoffset: 0; stroke-linejoin: miter; stroke-miterlimit: 4; fill: rgb(0,0,0); fill-rule: nonzero; opacity: 1;" vector-effect="non-scaling-stroke"  transform=" translate(-21.18, -21.18)" d="M 5.97435 41.32968 C 4.60822 42.69581 2.3907300000000005 42.69581 1.0246000000000004 41.32968 C -0.34152999999999967 39.963550000000005 -0.34152999999999967 37.74606 1.0246000000000004 36.37993 L 16.2274 21.177130000000002 L 1.0245999999999995 5.974330000000002 C -0.34153000000000056 4.608200000000002 -0.34153000000000056 2.390710000000002 1.0245999999999995 1.024580000000002 C 2.3907299999999996 -0.341549999999998 4.608219999999999 -0.341549999999998 5.974349999999999 1.024580000000002 L 21.177149999999997 16.227380000000004 L 36.379949999999994 1.0245800000000038 C 37.74607999999999 -0.34154999999999625 39.96356999999999 -0.34154999999999625 41.329699999999995 1.0245800000000038 C 42.695829999999994 2.390710000000004 42.695829999999994 4.608200000000004 41.329699999999995 5.974330000000004 L 26.126899999999996 21.177130000000005 L 41.329699999999995 36.37993 C 42.695829999999994 37.74606 42.695829999999994 39.96355 41.329699999999995 41.32968 C 39.96357 42.69581 37.74607999999999 42.69581 36.379949999999994 41.32968 L 21.177149999999994 26.126880000000003 z" stroke-linecap="round" />
</g>
</svg>