<?xml version="1.0" encoding="UTF-8" standalone="no" ?>
<!DOCTYPE svg PUBLIC "-//W3C//DTD SVG 1.1//EN" "http://www.w3.org/Graphics/SVG/1.1/DTD/svg11.dtd">
<svg xmlns="http://www.w3.org/2000/svg" xmlns:xlink="http://www.w3.org/1999/xlink" version="1.1" width="48" height="48" viewBox="0 0 48 48" xml:space="preserve">
<desc>Created with Fabric.js 4.6.0</desc>
<defs>
</defs>
<g transform="matrix(1 0 0 1 43.96 45.48)" id="SA_G3a8w0tYPqJjT2C8GN"  >
<g style="" vector-effect="non-scaling-stroke"   >
		<g transform="matrix(1 0 0 1 10.01 29.48)" id="tdLFLKdvFAXjw3IcCKueE"  >
<path style="stroke: rgb(63,10,125); stroke-width: 0; stroke-dasharray: none; stroke-linecap: butt; stroke-dashoffset: 0; stroke-linejoin: miter; stroke-miterlimit: 4; fill: rgb(0,0,0); fill-rule: nonzero; opacity: 1;" vector-effect="non-scaling-stroke"  transform=" translate(-24, -3)" d="M 3 6 C 1.344 6 0 4.656 0 3 C 0 1.344 1.344 0 3 0 L 45 0 C 46.656 0 48 1.344 48 3 C 48 4.656 46.656 6 45 6 z" stroke-linecap="round" />
</g>
		<g transform="matrix(1 0 0 1 20.01 39.48)" id="O2xVP_H6GQlqAOzL5As52"  >
<path style="stroke: rgb(63,10,125); stroke-width: 0; stroke-dasharray: none; stroke-linecap: butt; stroke-dashoffset: 0; stroke-linejoin: miter; stroke-miterlimit: 4; fill: rgb(0,0,0); fill-rule: nonzero; opacity: 1;" vector-effect="non-scaling-stroke"  transform=" translate(-24, -3)" d="M 3 6 C 1.344 6 0 4.656 0 3 C 0 1.344 1.344 0 3 0 L 45 0 C 46.656 0 48 1.344 48 3 C 48 4.656 46.656 6 45 6 z" stroke-linecap="round" />
</g>
		<g transform="matrix(1 0 0 1 -20.01 -38.48)" id="xWCshTdVPqUIuKb5OH4qn"  >
<path style="stroke: rgb(63,10,125); stroke-width: 0; stroke-dasharray: none; stroke-linecap: butt; stroke-dashoffset: 0; stroke-linejoin: miter; stroke-miterlimit: 4; fill: rgb(0,0,0); fill-rule: nonzero; opacity: 1;" vector-effect="non-scaling-stroke"  transform=" translate(-24, -4)" d="M 3 8 C 1.344 8 0 6.208 0 4 C 0 1.7919999999999998 1.344 0 3 0 L 45 0 C 46.656 0 48 1.792 48 4 C 48 6.208 46.656 8 45 8 z" stroke-linecap="round" />
</g>
		<g transform="matrix(1 0 0 1 -19.92 -4.53)" id="dDGgUaS5fetRIJawPfTTv"  >
<path style="stroke: rgb(63,10,125); stroke-width: 0; stroke-dasharray: none; stroke-linecap: butt; stroke-dashoffset: 0; stroke-linejoin: miter; stroke-miterlimit: 4; fill: rgb(0,0,0); fill-rule: nonzero; opacity: 1;" vector-effect="non-scaling-stroke"  transform=" translate(-24, -4)" d="M 3 8 C 1.344 8 0 6.208 0 4 C 0 1.7919999999999998 1.344 0 3 0 L 45 0 C 46.656 0 48 1.792 48 4 C 48 6.208 46.656 8 45 8 z" stroke-linecap="round" />
</g>
		<g transform="matrix(1 0 0 1 -19.96 -21.48)" id="S6x3lsxBCVHPOIcAVL8y6"  >
<path style="stroke: rgb(63,10,125); stroke-width: 0; stroke-dasharray: none; stroke-linecap: butt; stroke-dashoffset: 0; stroke-linejoin: miter; stroke-miterlimit: 4; fill: rgb(0,0,0); fill-rule: nonzero; opacity: 1;" vector-effect="non-scaling-stroke"  transform=" translate(-24, -4)" d="M 3 8 C 1.344 8 0 6.208 0 4 C 0 1.7919999999999998 1.344 0 3 0 L 45 0 C 46.656 0 48 1.792 48 4 C 48 6.208 46.656 8 45 8 z" stroke-linecap="round" />
</g>
</g>
</g>
</svg>