<?xml version="1.0" encoding="UTF-8" standalone="no" ?>
<!DOCTYPE svg PUBLIC "-//W3C//DTD SVG 1.1//EN" "http://www.w3.org/Graphics/SVG/1.1/DTD/svg11.dtd">
<svg xmlns="http://www.w3.org/2000/svg" xmlns:xlink="http://www.w3.org/1999/xlink" version="1.1" width="48" height="48" viewBox="0 0 48 48" xml:space="preserve">
<desc>Created with Fabric.js 4.6.0</desc>
<defs>
</defs>
<g transform="matrix(1 0 0 1 47.21 67.29)" id="9DBNBmdDONUb4GsSkgXdb"  >
<path style="stroke: rgb(45,192,210); stroke-width: 0; stroke-dasharray: none; stroke-linecap: butt; stroke-dashoffset: 0; stroke-linejoin: miter; stroke-miterlimit: 4; fill: rgb(255,0,0); fill-rule: nonzero; opacity: 1;" vector-effect="non-scaling-stroke"  transform=" translate(-2.5, -2.5)" d="M 2.5 0 C 3.88 0 5 1.12 5 2.5 C 5 3.88 3.88 5 2.5 5 C 1.12 5 0 3.88 0 2.5 C 0 1.12 1.12 0 2.5 0 z" stroke-linecap="round" />
</g>
<g transform="matrix(1.07 0 0 1.06 24 24)" id="5c-sdxrdSc0-u_541mWf4"  >
<path style="stroke: rgb(0,0,0); stroke-width: 2; stroke-dasharray: none; stroke-linecap: butt; stroke-dashoffset: 0; stroke-linejoin: miter; stroke-miterlimit: 4; fill: rgb(255,255,255); fill-opacity: 0; fill-rule: nonzero; opacity: 1;" vector-effect="non-scaling-stroke"  transform=" translate(0, 0)" d="M -4.56185 7.74 C -2.3538499999999996 7.74 -0.5618499999999997 9.532 -0.5618499999999997 11.74 C -0.5618499999999997 13.948 -2.3538499999999996 15.74 -4.56185 15.74 C -6.76985 15.74 -8.56185 13.948 -8.56185 11.74 C -8.56185 9.532 -6.76985 7.74 -4.56185 7.74 z M 10.3337 7.74 C 12.5417 7.74 14.3337 9.532 14.3337 11.74 C 14.3337 13.948 12.5417 15.74 10.3337 15.74 C 8.1257 15.74 6.3337 13.948 6.3337 11.74 C 6.3337 9.532 8.1257 7.74 10.3337 7.74 z M -2.20185 -9.75 L -2.20185 -9.73886 L 18.156769999999998 -9.73886 L 18.156769999999998 -9.732140000000001 L 21.18144 -9.732140000000001 L 17.012439999999998 5.826779999999999 C 16.816679999999998 6.557379999999999 16.112959999999998 7.01709 15.383009999999999 6.927809999999999 L -9.326540000000001 6.927809999999999 C -10.032140000000002 6.982009999999999 -10.699230000000002 6.5283299999999995 -10.888990000000002 5.82011 L -15.862160000000001 -12.740000000000002 L -19.036440000000002 -12.740000000000002 C -20.220480000000002 -12.740000000000002 -21.181440000000002 -13.412000000000003 -21.181440000000002 -14.240000000000002 C -21.181440000000002 -15.068000000000001 -20.220480000000002 -15.740000000000002 -19.036440000000002 -15.740000000000002 L -13.642280000000003 -15.740000000000002 L -13.642280000000003 -15.732190000000003 L -13.558090000000004 -15.732190000000003 L -11.955170000000004 -9.750000000000004 z" stroke-linecap="round" />
</g>
</svg>